<?xml version="1.0" encoding="UTF-8"?>
<!DOCTYPE svg PUBLIC "-//W3C//DTD SVG 1.1//EN" "http://www.w3.org/Graphics/SVG/1.1/DTD/svg11.dtd">
<svg xmlns="http://www.w3.org/2000/svg" version="1.1" width="213px" height="200px" style="shape-rendering:geometricPrecision; text-rendering:geometricPrecision; image-rendering:optimizeQuality; fill-rule:evenodd; clip-rule:evenodd" xmlns:xlink="http://www.w3.org/1999/xlink">
<g><path style="opacity:0.968" fill="#fefffe" d="M 172.5,-0.5 C 178.167,-0.5 183.833,-0.5 189.5,-0.5C 200.833,3.5 208.5,11.1667 212.5,22.5C 212.5,28.1667 212.5,33.8333 212.5,39.5C 205.336,57.5898 192.003,65.0898 172.5,62C 154.284,55.0797 146.784,41.9131 150,22.5C 153.684,10.9837 161.184,3.31707 172.5,-0.5 Z"/></g>
<g><path style="opacity:0.991" fill="#fefffe" d="M 48.5,199.5 C 47.1667,199.5 45.8333,199.5 44.5,199.5C 44.2172,198.711 43.7172,198.044 43,197.5C 42.5002,186.839 42.3335,176.172 42.5,165.5C 32.1017,165.899 21.7683,165.399 11.5,164C 6.06067,161.577 2.06067,157.743 -0.5,152.5C -0.5,113.833 -0.5,75.1667 -0.5,36.5C 1.95672,30.5459 6.29006,26.3792 12.5,24C 54.4987,23.5 96.4987,23.3333 138.5,23.5C 136.046,47.1152 145.713,63.2818 167.5,72C 174.092,73.3288 180.759,73.8288 187.5,73.5C 187.667,99.8354 187.5,126.169 187,152.5C 184.051,159.394 178.885,163.561 171.5,165C 140.495,165.167 109.495,165.667 78.5,166.5C 68.478,177.52 58.478,188.52 48.5,199.5 Z"/></g>
</svg>
