<svg width="15" height="15" xmlns="http://www.w3.org/2000/svg">

 <g>
  <title>background</title>
  <rect fill="none" id="canvas_background" height="17" width="17" y="-1" x="-1"/>
 </g>
 <g>
  <title>Layer 1</title>
  <g stroke="null" id="svg_1">
   <path stroke="null" fill="#ffffff" id="svg_2" d="m9.789183,7.499838l3.99652,-3.996196c0.632359,-0.632359 0.632359,-1.657473 0,-2.289508c-0.631711,-0.632035 -1.657473,-0.632035 -2.289184,0l-3.99652,3.996844l-3.99652,-3.996844c-0.631711,-0.632035 -1.657473,-0.632035 -2.289184,0c-0.632359,0.632359 -0.632359,1.657473 0,2.289508l3.996196,3.996196l-3.996196,3.996196c-0.632359,0.632359 -0.632359,1.657473 0,2.289508c0.315694,0.316341 0.730467,0.474026 1.144592,0.474026c0.413802,0 0.828898,-0.157685 1.144592,-0.474026l3.99652,-3.996196l3.99652,3.99652c0.316017,0.316341 0.730467,0.474026 1.144592,0.474026s0.828898,-0.157685 1.144592,-0.474026c0.632359,-0.632359 0.632359,-1.657473 0,-2.289508l-3.99652,-3.99652z"/>
  </g>
  <g id="svg_3"/>
  <g id="svg_4"/>
  <g id="svg_5"/>
  <g id="svg_6"/>
  <g id="svg_7"/>
  <g id="svg_8"/>
  <g id="svg_9"/>
  <g id="svg_10"/>
  <g id="svg_11"/>
  <g id="svg_12"/>
  <g id="svg_13"/>
  <g id="svg_14"/>
  <g id="svg_15"/>
  <g id="svg_16"/>
  <g id="svg_17"/>
 </g>
</svg>