<svg width="512" height="512" xmlns="http://www.w3.org/2000/svg" version="1.0">

 <g>
  <title>Layer 1</title>
  <g id="svg_1" transform="translate(0 512) scale(0.1 -0.1)">
   <path fill="#d5d5d5" id="svg_2" d="m2441,4624c-253,-68 -410,-331 -346,-579c67,-256 329,-415 580,-350c190,50 330,207 358,401c48,331 -270,615 -592,528z"/>
   <path fill="#d5d5d5" id="svg_3" d="m2441,3024c-253,-68 -410,-331 -346,-579c67,-256 329,-415 580,-350c190,50 330,207 358,401c48,331 -270,615 -592,528z"/>
   <path fill="#d5d5d5" id="svg_4" d="m2441,1424c-253,-68 -410,-331 -346,-579c67,-256 329,-415 580,-350c190,50 330,207 358,401c48,331 -270,615 -592,528z"/>
  </g>
 </g>
</svg>