<svg xmlns="http://www.w3.org/2000/svg" viewBox="0 0 90 90" style="enable-background:new 0 0 90 90" xml:space="preserve"><path style="fill:white" d="M65.449 6.169C59.748 2.057 52.588 0 43.971 0c-6.559 0-12.09 1.449-16.588 4.34C20.25 8.871 16.457 16.562 16 27.412h16.531c0-3.158.922-6.203 2.766-9.137 1.846-2.932 4.975-4.396 9.389-4.396 4.488 0 7.58 1.19 9.271 3.568 1.693 2.381 2.539 5.018 2.539 7.91 0 2.513-1.262 4.816-2.781 6.91-.836 1.22-1.938 2.342-3.307 3.369 0 0-8.965 5.75-12.9 10.368-2.283 2.681-2.488 6.692-2.689 12.449-.014.409.143 1.255 1.576 1.255h12.857c1.275 0 1.541-.951 1.559-1.362.09-2.098.326-3.167.707-4.377.723-2.286 2.688-4.283 4.893-5.997l4.551-3.141c4.107-3.199 7.385-5.826 8.83-7.883C72.264 33.562 74 29.393 74 24.443c0-8.07-2.852-14.162-8.551-18.274zM43.705 69.617c-5.697-.17-10.398 3.771-10.578 9.951-.178 6.178 4.293 10.258 9.99 10.426 5.949.177 10.523-3.637 10.701-9.814.178-6.18-4.164-10.387-10.113-10.563z"/></svg>