<?xml version="1.0" encoding="UTF-8"?>
<svg width="800px" height="800px" preserveAspectRatio="xMidYMid" version="1.1" viewBox="0 0 256 256" xmlns="http://www.w3.org/2000/svg">
<path d="m128 0c-70.693 0-128 57.307-128 128s57.307 128 128 128 128-57.307 128-128-57.307-128-128-128z" fill="#40B3E0"></path>
<path d="m190.28 73.631-22.862 115.27s-3.197 7.994-11.99 4.157l-52.758-40.448-19.184-9.272-32.294-10.872s-4.956-1.758-5.436-5.595c-0.479-3.837 5.596-5.915 5.596-5.915l128.38-50.36s10.552-4.636 10.552 3.038" fill="#fff"></path>
<path d="m98.618 187.6s-1.54-0.144-3.459-6.22c-1.918-6.075-11.67-38.049-11.67-38.049l77.537-49.24s4.477-2.718 4.317 0c0 0 0.799 0.479-1.599 2.717-2.398 2.239-60.911 54.836-60.911 54.836" fill="#D2E5F1"></path>
<path d="m122.9 168.12-20.868 19.026s-1.631 1.238-3.416 0.462l3.996-35.341" fill="#B5CFE4"></path>
</svg>
