<svg width="75" height="75" xmlns="http://www.w3.org/2000/svg"><style><![CDATA[.st0{fill:#EF3E42}.st1{fill:#FFFFFF}.st3{fill-rule:evenodd;clip-rule:evenodd;fill:#FFFFFF}]]></style><path fill="none" id="canvas_background" d="M-1-1h77v77H-1z"/><g><path fill="#fff" stroke="null" id="svg_1" d="M53.684 23.18v40.835c0 1.902-1.5 3.469-3.322 3.469H24.585c-1.822 0-3.323-1.567-3.323-3.469V23.18h32.422zm-8.413 4.53v35.13H47.2V27.71h-1.93zm-8.736 0v35.13h1.93V27.71h-1.93zm-8.735 0v35.13h1.93V27.71H27.8zm2.144-13.984v-2.91c0-1.845 1.393-3.3 3.162-3.3h8.788c1.769 0 3.162 1.455 3.162 3.3v2.91h9.7c1.822 0 3.323 1.566 3.323 3.468v2.405H16.92v-2.461c0-1.902 1.5-3.468 3.323-3.468h9.7v.056zm3.162-3.972c-.536 0-.965.448-.965 1.007v2.909h10.772v-2.91c0-.558-.43-1.006-.965-1.006h-8.842z"/></g></svg>