<svg width="24" height="24" xmlns="http://www.w3.org/2000/svg" fill="none">

 <g>
  <title>Layer 1</title>
  <path id="svg_2" fill="#ffffff" d="m6,7.86395c0,-3.31371 2.68629,-6 6,-6c3.3137,0 6,2.68629 6,6c0,3.3137 -2.6863,6 -6,6c-3.31371,0 -6,-2.6863 -6,-6z" clip-rule="evenodd" fill-rule="evenodd"/>
  <path id="svg_3" fill="#ffffff" d="m5.43094,16.9025c1.62493,-0.6812 3.79236,-0.9025 6.56906,-0.9025c2.771,0 4.9351,0.2204 6.5586,0.8981c1.7426,0.7274 2.8122,1.9632 3.3824,3.7606c0.2118,0.668 -0.2892,1.3413 -0.9818,1.3413l-17.92461,0c-0.68977,0 -1.1878,-0.6703 -0.97769,-1.3346c0.56847,-1.7973 1.63429,-3.0336 3.37404,-3.7629z" clip-rule="evenodd" fill-rule="evenodd"/>
 </g>
</svg>